Coordinates
version=1
nRows=4
nColumns=63
inDegrees=yes

Units are S.I. units (second, meters, Newtons, ...)
If the header above contains a line with 'inDegrees', this indicates whether rotational values are in degrees (yes) or radians (no).

endheader
time	pelvis_tilt	pelvis_list	pelvis_rotation	pelvis_tx	pelvis_ty	pelvis_tz	hip_flexion_r	hip_adduction_r	hip_rotation_r	knee_angle_r	knee_angle_r_beta	ankle_angle_r	subtalar_angle_r	mtp_angle_r	hip_flexion_l	hip_adduction_l	hip_rotation_l	knee_angle_l	knee_angle_l_beta	ankle_angle_l	subtalar_angle_l	mtp_angle_l	L5_S1_Flex_Ext	L5_S1_Lat_Bending	L5_S1_axial_rotation	L4_L5_Flex_Ext	L4_L5_Lat_Bending	L4_L5_axial_rotation	L3_L4_Flex_Ext	L3_L4_Lat_Bending	L3_L4_axial_rotation	L2_L3_Flex_Ext	L2_L3_Lat_Bending	L2_L3_axial_rotation	L1_L2_Flex_Ext	L1_L2_Lat_Bending	L1_L2_axial_rotation	L1_T12_Flex_Ext	L1_T12_Lat_Bending	L1_T12_axial_rotation	Abs_r3	Abs_r2	Abs_r1	Abs_t1	Abs_t2	neck_flexion	neck_bending	neck_rotation	arm_flex_r	arm_add_r	arm_rot_r	elbow_flex_r	pro_sup_r	wrist_flex_r	wrist_dev_r	arm_flex_l	arm_add_l	arm_rot_l	elbow_flex_l	pro_sup_l	wrist_flex_l	wrist_dev_l
      2.65853659	     -2.08311626	     -0.24518658	     94.54881695	      0.19826606	      0.86682654	      0.52363672	     -7.82844086	     -1.56028520	     -4.62149668	      8.50264377	      0.14839913	     29.54332568	     -1.91968482	      0.00000000	     -8.94101708	      1.39164687	     17.50514611	      0.46127649	      0.00805079	     24.11984162	    -14.60149475	      0.00000000	      0.27299322	      0.05715175	     -0.17950484	      0.50697571	      0.07601183	     -0.19072389	      0.44850056	      0.13895877	     -0.19072389	      0.31200395	      0.13895877	     -0.15706674	      0.25350151	      0.11654386	     -0.14584768	      0.15598833	      0.08852807	     -0.13462863	      1.94996328	      0.64651207	     -0.99835207	      0.00000000	      0.00000000	     28.34361558	     -7.87008777	    -15.20161719	      3.14794493	    -12.09965728	    139.48766131	      8.62229081	      5.64894754	     -0.76877304	     -9.26138147	      0.15398715	    -10.02471961	    160.75061427	      1.55716065	      5.87703738	     -9.88672775	    -14.29977599
      2.68292683	     -2.33193714	     -0.80357830	     95.19019546	      0.19731357	      0.86610157	      0.52471144	     -7.10448189	     -1.80057858	     -4.80201353	      8.86190114	      0.15466935	     29.84453877	     -2.49367853	      0.00000000	     -8.24067383	      1.62316687	     18.23571302	      0.51861657	      0.00905157	     23.87653681	    -14.44250009	      0.00000000	      0.35948169	      0.02110816	     -0.32042596	      0.66759346	      0.02807385	     -0.34045258	      0.59059248	      0.05132237	     -0.34045258	      0.41085163	      0.05132237	     -0.28037271	      0.33381470	      0.04304375	     -0.26034609	      0.20540784	      0.03269653	     -0.24031947	      2.56774180	      0.23877968	     -1.78211304	      0.00000000	      0.00000000	     28.36411384	     -7.76693679	    -14.14945877	      3.47792703	    -12.24317906	    140.47435800	      8.83079500	      6.80382029	     -4.45238183	     -9.91744291	      0.61236270	    -10.35560548	    158.41578598	      1.74012278	      5.26379575	     -7.88462812	    -14.11757802
      2.70731707	     -2.39702198	     -1.04283873	     95.68698187	      0.19637693	      0.86564927	      0.52569902	     -6.87425301	     -1.84627860	     -5.03431824	      8.77444501	      0.15314296	     29.82232782	     -2.62343176	      0.00000000	     -7.87783697	      1.68407683	     18.69827983	      0.54664510	      0.00954076	     23.90544582	    -14.29925296	      0.00000000	      0.39291802	      0.01034425	     -0.41720263	      0.72968806	      0.01375786	     -0.44327780	      0.64552502	      0.02515102	     -0.44327780	      0.44906601	      0.02515102	     -0.36505230	      0.36486368	      0.02109400	     -0.33897714	      0.22451336	      0.01602325	     -0.31290197	      2.80657415	      0.11701626	     -2.32035588	      0.00000000	      0.00000000	     28.38695415	     -7.73380722	    -13.20111205	      3.89268237	    -12.83168382	    138.36821052	      9.21128325	      5.91644160	     -5.42653842	     -9.46862476	      1.19542102	    -10.66593109	    155.14440338	      1.97177598	      4.54503634	     -6.74568625	    -14.77984034
      2.73170732	     -2.43429351	     -1.48874692	     96.23795963	      0.19567760	      0.86515060	      0.52636788	     -6.47181988	     -1.76869205	     -4.05078700	      8.58525267	      0.14984093	     29.30082015	     -4.57131549	      0.00000000	     -7.29773273	      1.71213910	     20.48904026	      0.54390638	      0.00949296	     23.37007013	    -16.06426197	      0.00000000	      0.46611564	     -0.00158219	     -0.52153364	      0.86562335	     -0.00210432	     -0.55412949	      0.76578138	     -0.00384695	     -0.55412949	      0.53272356	     -0.00384695	     -0.45634194	      0.43283498	     -0.00322641	     -0.42374608	      0.26633847	     -0.00245082	     -0.39115023	      3.32941738	     -0.01789809	     -2.90061365	      0.00000000	      0.00000000	     28.40777913	     -7.15527027	    -11.63141474	      4.31084931	    -13.82206634	    132.89509593	      9.88784118	      5.62252660	     -6.24123751	     -8.73396919	      1.85215750	    -11.07419495	    148.80321734	      2.61197101	      4.89667065	     -5.66259744	    -15.58462054
